# xmcd
#
# Track frame offsets: 
#        150
#        11545
#        21992
#        35042
#        46727
#        57400
#        68942
#        80037
#        90927
#        102582
#        115470
#        126575
#        135645
#        151577
#        162462
#        173060
#        184297
#        194050
#        223227
#        233952
#        242325
#        252612
#        273270
#        288207
#        300730
#        313555
#        324112
#        338475
#        350585
#
# Disc length: 4794 seconds
#
# Revision: 2
# Processed by: cddbd v1.5.2PL0 Copyright (c) Steve Scherf et al.
# Submitted via: ExactAudioCopyFreeDBPlugin 1.0
#
DISCID=ab12b81d
DTITLE=Various Artist - Blowing the Fuse:  459 R&B Classics, 1945-196
DTITLE=0 [Bear Family]
DYEAR=1959
DGENRE=Rhythm and Blues
TTITLE0=James Brown and The Famous Flames - Try Me
TTITLE1=The Fiestas - So Fine
TTITLE2=Eugene Church and The Fellows - Pretty Girls Everywhere
TTITLE3=LaVern Baker - I Cried a Tear
TTITLE4=Lloyd Price - Stagger Lee
TTITLE5=The Impalas - Sorry (I Ran All the Way Home)
TTITLE6=Brook Benton - It's Just the Way Home
TTITLE7=Wilbert Harrison - Kansas City
TTITLE8=Hank Ballard and The Midnighters - The Twist
TTITLE9=The Crests - 16 Candles
TTITLE10=Don and Dewey - Farmer John
TTITLE11=Dave "Baby" Cortez - The Happy Organ
TTITLE12=Big Jay McNeely - There is Something on Your Mind (ft Little 
TTITLE12=Sonny Warner)
TTITLE13=The Falcons - You're So Fine
TTITLE14=Chuck Berry - Almost Grown
TTITLE15=Dinah Washingston - What a Diff'rence a Day Makes
TTITLE16=The Drifters - There Goes My Baby
TTITLE17=Ray Charles - What'd I Say, Parts 1 and 2
TTITLE18=Phil Phillips with The Twilights - Sea of Love
TTITLE19=The Clovers - Love Potion, No. 9
TTITLE20=Dee Clark - Hey Little Girl
TTITLE21=The Isley Brothers - Shout (Parts 1 and 2)
TTITLE22=The Flamingos - I Only Have Eyes for You
TTITLE23=The Spacemen - The Clouds
TTITLE24=Marv Johnson - You Got What it Takes
TTITLE25=Fats Domino - I Want to Walk You Home
TTITLE26=Bo Diddley - Say Man
TTITLE27=The Coasters - Poison Ivy
TTITLE28=Jackie Wilson - You Better Know it
EXTD=
EXTT0=
EXTT1=
EXTT2=
EXTT3=
EXTT4=
EXTT5=
EXTT6=
EXTT7=
EXTT8=
EXTT9=
EXTT10=
EXTT11=
EXTT12=
EXTT13=
EXTT14=
EXTT15=
EXTT16=
EXTT17=
EXTT18=
EXTT19=
EXTT20=
EXTT21=
EXTT22=
EXTT23=
EXTT24=
EXTT25=
EXTT26=
EXTT27=
EXTT28=
PLAYORDER=
